<svg version="1.1" id="Layer_1" xmlns="http://www.w3.org/2000/svg" xmlns:xlink="http://www.w3.org/1999/xlink" x="0px" y="0px"
	 width="50" height="50" viewBox="0 0 511.903 511.807" enable-background="new 0 0 511.903 511.807"
	 xml:space="preserve">
<g>
	<path fill-rule="evenodd" clip-rule="evenodd" fill="black" d="M511.903,511.807c-170.602,0-341.204,0-511.903,0
		C0,341.28,0,170.72,0,0c170.569,0,341.236,0,511.903,0C511.903,170.522,511.903,341.147,511.903,511.807z M107.73,184.543
		c1.406,13.391,2.15,26.89,4.341,40.149c7.178,43.448,20.918,84.907,39.5,124.767c10.079,21.619,21.414,42.482,36.846,60.943
		c12.252,14.655,28.248,17.606,45.938,16.114c10.507-0.887,19.196-6.277,27.755-11.773c9.638-6.19,19.119-5.673,28.677,0.022
		c2.146,1.277,4.306,2.529,6.478,3.764c10.574,6.011,21.897,8.779,34.056,7.587c7.119-0.697,13.722-2.914,18.923-8.063
		c4.779-4.73,4.122-9.367-1.752-12.396c-3.24-1.67-6.764-2.783-10.115-4.251c-8.826-3.865-17.736-7.562-26.402-11.76
		c-6.619-3.205-9.867-8.723-8.963-16.31c1.041-8.737,1.332-17.638,3.219-26.187c4.227-19.146,14.792-32.663,34.934-37.536
		c6.701-1.621,13.229-4.681,19.27-8.086c4.813-2.712,9.332-6.461,12.943-10.646c3.729-4.319,1.565-9.485-4.1-10.509
		c-4.365-0.788-8.939-0.448-13.423-0.538c-5.306-0.106-10.647,0.217-15.912-0.292c-5.757-0.557-7.04-2.58-4.43-7.527
		c4.415-8.368,9.423-16.426,14.261-24.566c6.029-10.15,14.284-17.412,26.113-20.118c2.406-0.55,4.688-1.704,6.973-2.706
		c21.583-9.472,27.465-36.112,11.637-53.663c-10.259-11.376-23.734-17.323-38.535-19.324c-15.187-2.053-29.877-4.771-42.764-13.692
		c-1.373-0.95-3.228-1.203-4.859-1.779c-0.344,1.852-1.25,3.805-0.939,5.539c1.758,9.81,4.436,19.491,5.621,29.358
		c2.305,19.175,0.554,37.649-12.578,53.322c-11.979,14.297-24.096,28.484-35.753,43.039c-4.315,5.389-8.335,11.327-11.039,17.637
		c-9.196,21.455-11.974,44.545-16.096,67.283c-2.164,11.938-4.568,23.843-7.267,35.67c-0.517,2.261-2.916,4.091-4.447,6.12
		c-1.941-1.656-4.705-2.931-5.684-5.035c-4.264-9.181-8.856-18.346-11.789-27.985c-10.164-33.416-19.703-67.022-29.402-100.579
		c-0.432-1.496-0.432-3.291-0.072-4.814c2.133-9.063,4.143-18.174,6.777-27.096c1.76-5.963,1.723-10.205-3.914-14.659
		c-7.745-6.119-8.523-17.146-3.301-25.41c5.635-8.918,15.721-12.597,25.061-9.162c7.729,2.842,12.402,8.468,13.762,16.404
		c1.37,7.995-1.479,14.801-7.823,19.898c-2.632,2.116-4.596,4.032-3.547,7.898c2.524,9.311,4.687,18.719,7.106,28.058
		c2.109,8.138,2.859,8.406,11.037,5.914c41.884-12.761,69.961-56.678,60.426-102.332c-7.313-35.017-35.66-63.021-71.037-69.478
		c-35.793-6.531-72.8,10.352-91.568,41.62C111.288,145.006,108.321,164.344,107.73,184.543z"/>
	<path fill-rule="evenodd" clip-rule="evenodd" fill="black" d="M365.831,189.495c-4.117-0.111-7.535-3.633-7.518-7.746
		c0.018-4.191,3.928-7.809,8.201-7.589c4.146,0.215,7.223,3.701,7.085,8.032C373.465,186.459,370.111,189.611,365.831,189.495z"/>
</g>
</svg>
